<svg xmlns="http://www.w3.org/2000/svg" width="754.139" height="736.943" viewBox="0 0 754.139 736.943"><defs><style>.a{fill:#ffc400;}.b{fill:#fff;}.c{fill:#e20000;}.d{fill:#d2d2d2;}.e{fill:#d56200;}.f{fill:#ffb8b8;}.g{fill:#505050;}.h{fill:#bababa;}.i{opacity:0.1;}</style></defs><path class="a" d="M792,529.922l275.661-396.365,352.7,308.953-70.286,348.771Z" transform="translate(-792 -133.557)"/><path class="b" d="M10.67-1.58,10.66,0H1.83V-14.33h8.83v1.58H3.77v4.76H9.35v1.52H3.77v4.89Zm6.68-5.81a4.9,4.9,0,0,0,1.485-.2,3.042,3.042,0,0,0,1.08-.58,2.406,2.406,0,0,0,.655-.895,2.923,2.923,0,0,0,.22-1.15,2.29,2.29,0,0,0-.84-1.93,4.08,4.08,0,0,0-2.52-.65H15.31v5.41ZM23.97,0H22.25a.848.848,0,0,1-.78-.41L17.75-5.53a1.1,1.1,0,0,0-.365-.345,1.329,1.329,0,0,0-.6-.105H15.31V0H13.38V-14.33h4.05a8.849,8.849,0,0,1,2.35.275,4.485,4.485,0,0,1,1.635.8,3.183,3.183,0,0,1,.955,1.255,4.194,4.194,0,0,1,.31,1.645,4.124,4.124,0,0,1-.24,1.42,3.75,3.75,0,0,1-.695,1.185,4.158,4.158,0,0,1-1.11.9,5.5,5.5,0,0,1-1.485.56,1.916,1.916,0,0,1,.64.61Zm5.91-7.39a4.9,4.9,0,0,0,1.485-.2,3.042,3.042,0,0,0,1.08-.58A2.406,2.406,0,0,0,33.1-9.07a2.923,2.923,0,0,0,.22-1.15,2.29,2.29,0,0,0-.84-1.93,4.08,4.08,0,0,0-2.52-.65H27.84v5.41ZM36.5,0H34.78A.848.848,0,0,1,34-.41L30.28-5.53a1.1,1.1,0,0,0-.365-.345,1.329,1.329,0,0,0-.605-.105H27.84V0H25.91V-14.33h4.05a8.849,8.849,0,0,1,2.35.275,4.485,4.485,0,0,1,1.635.8,3.183,3.183,0,0,1,.955,1.255,4.194,4.194,0,0,1,.31,1.645,4.124,4.124,0,0,1-.24,1.42,3.75,3.75,0,0,1-.695,1.185,4.158,4.158,0,0,1-1.11.9,5.5,5.5,0,0,1-1.485.56,1.916,1.916,0,0,1,.64.61ZM51.54-7.16A8.272,8.272,0,0,1,51.03-4.2,6.767,6.767,0,0,1,49.59-1.89a6.436,6.436,0,0,1-2.235,1.5A7.537,7.537,0,0,1,44.47.15a7.5,7.5,0,0,1-2.88-.535,6.447,6.447,0,0,1-2.23-1.5A6.767,6.767,0,0,1,37.92-4.2a8.272,8.272,0,0,1-.51-2.955,8.272,8.272,0,0,1,.51-2.955,6.821,6.821,0,0,1,1.44-2.32,6.471,6.471,0,0,1,2.23-1.515,7.438,7.438,0,0,1,2.88-.54,7.476,7.476,0,0,1,2.885.54,6.46,6.46,0,0,1,2.235,1.515,6.821,6.821,0,0,1,1.44,2.32A8.272,8.272,0,0,1,51.54-7.16Zm-1.99,0a7.283,7.283,0,0,0-.36-2.37A5.013,5.013,0,0,0,48.17-11.3a4.426,4.426,0,0,0-1.6-1.115,5.432,5.432,0,0,0-2.1-.39,5.4,5.4,0,0,0-2.09.39,4.474,4.474,0,0,0-1.6,1.115A4.972,4.972,0,0,0,39.75-9.53a7.283,7.283,0,0,0-.36,2.37A7.237,7.237,0,0,0,39.75-4.8a4.979,4.979,0,0,0,1.025,1.77,4.421,4.421,0,0,0,1.6,1.11,5.466,5.466,0,0,0,2.09.385,5.494,5.494,0,0,0,2.1-.385,4.374,4.374,0,0,0,1.6-1.11A5.019,5.019,0,0,0,49.19-4.8,7.237,7.237,0,0,0,49.55-7.16Zm8.73-.23a4.9,4.9,0,0,0,1.485-.2,3.042,3.042,0,0,0,1.08-.58A2.406,2.406,0,0,0,61.5-9.07a2.923,2.923,0,0,0,.22-1.15,2.29,2.29,0,0,0-.84-1.93,4.08,4.08,0,0,0-2.52-.65H56.24v5.41ZM64.9,0H63.18a.848.848,0,0,1-.78-.41L58.68-5.53a1.1,1.1,0,0,0-.365-.345,1.329,1.329,0,0,0-.6-.105H56.24V0H54.31V-14.33h4.05a8.849,8.849,0,0,1,2.35.275,4.485,4.485,0,0,1,1.635.8,3.183,3.183,0,0,1,.955,1.255,4.194,4.194,0,0,1,.31,1.645,4.124,4.124,0,0,1-.24,1.42,3.75,3.75,0,0,1-.695,1.185,4.158,4.158,0,0,1-1.11.9,5.5,5.5,0,0,1-1.485.56,1.916,1.916,0,0,1,.64.61Z" transform="translate(413 547.443)"/><rect width="1.381" height="246.948" transform="translate(726.254 426.599)"/><ellipse class="c" cx="26.928" cy="61.452" rx="26.928" ry="61.452" transform="translate(700.282 529.48)"/><ellipse class="c" cx="26.928" cy="61.452" rx="26.928" ry="61.452" transform="translate(700.282 389.314)"/><path d="M1078.277,464.653l-1.323-.4c.084-.279,8.2-28.1-5.128-46.01-7.529-10.115-20.449-15.244-38.4-15.244v-1.381c18.415,0,31.708,5.318,39.512,15.806C1086.681,435.9,1078.363,464.368,1078.277,464.653Z" transform="translate(-350.405 -64.094)"/><circle class="d" cx="17.262" cy="17.262" r="17.262" transform="translate(665.759 320.957)"/><path class="b" d="M91.168-71.743v-55.944q0-4.4.324-9.389t.971-10.425L38.073-71.743Zm52.836,0v20.2a6.852,6.852,0,0,1-1.878,4.856,6.831,6.831,0,0,1-5.245,2.007H122.248V0H91.168V-44.678H13.6A10.068,10.068,0,0,1,7.446-46.75a8.59,8.59,0,0,1-3.432-5.439L.259-70.06l88.06-117.974h33.929V-71.743Z" transform="translate(166 347.443)"/><path class="b" d="M85.3-55.539a90.325,90.325,0,0,1-3.136,25.245,51.96,51.96,0,0,1-8.645,17.71A34.653,34.653,0,0,1,60.473-2.18a39.02,39.02,0,0,1-16.256,3.4A38.76,38.76,0,0,1,28-2.18a34.116,34.116,0,0,1-12.929-10.4,52.329,52.329,0,0,1-8.53-17.71,91.377,91.377,0,0,1-3.1-25.245,90.961,90.961,0,0,1,3.1-25.207,52.355,52.355,0,0,1,8.53-17.672A34.116,34.116,0,0,1,28-108.821a38.76,38.76,0,0,1,16.218-3.4,39.02,39.02,0,0,1,16.256,3.4,34.653,34.653,0,0,1,13.043,10.4,51.987,51.987,0,0,1,8.645,17.672A89.914,89.914,0,0,1,85.3-55.539Zm-21.8,0A94.933,94.933,0,0,0,61.85-74.97a39.932,39.932,0,0,0-4.322-12.087,15.751,15.751,0,0,0-6.158-6.2,15.68,15.68,0,0,0-7.153-1.759,15.221,15.221,0,0,0-7.076,1.759,15.7,15.7,0,0,0-6.044,6.2A40.059,40.059,0,0,0,26.852-74.97a97.129,97.129,0,0,0-1.607,19.431,97.607,97.607,0,0,0,1.607,19.508A40.059,40.059,0,0,0,31.1-23.944a15.7,15.7,0,0,0,6.044,6.2,15.221,15.221,0,0,0,7.076,1.759,15.68,15.68,0,0,0,7.153-1.759,15.751,15.751,0,0,0,6.158-6.2A39.932,39.932,0,0,0,61.85-36.031,95.4,95.4,0,0,0,63.495-55.539Z" transform="translate(316 440.443)"/><path class="b" d="M48.928-38.5V-68.527q0-2.363.174-5.039t.521-5.595L20.433-38.5Zm28.356,0v10.842a3.677,3.677,0,0,1-1.008,2.606,3.666,3.666,0,0,1-2.815,1.077H65.608V0H48.928V-23.977H7.3A5.4,5.4,0,0,1,4-25.09a4.61,4.61,0,0,1-1.842-2.919L.139-37.6,47.4-100.914H65.608V-38.5Z" transform="translate(403 509.443)"/><path class="e" d="M172.186,510.5l-8.052,80.521-13.908-2.2-5.856-76.861Z" transform="translate(478.9 99.805)"/><path d="M208.253,700l19.032,2.928-2.2,23.424s6.588,3.66,2.2,15.372-4.392,14.64-4.392,14.64l-15.078-1.459c-5.843-.565-19.887-5.832-21.889-11.351-.83-2.289,8.032-2.765,9.882-3.294C200.933,738.8,208.253,700,208.253,700Z" transform="translate(418.676 -19.422)"/><path class="e" d="M270.186,506.5l-8.052,80.521-13.908-2.2-5.856-76.861Z" transform="translate(309.163 100.877)"/><path class="e" d="M22.692,0A22.692,22.692,0,1,1,0,22.692,22.692,22.692,0,0,1,22.692,0Z" transform="translate(569.467 302.496)"/><path class="f" d="M217.464,233.32s5.856,15.372,0,20.5,38.8,5.124,38.8,5.124L237.961,226Z" transform="translate(368.473 107.606)"/><path class="g" d="M157.935,511.319c9.516,16.836,102.481,5.124,102.481,5.124l16.1-10.248,6.588-3.66s-4.392-70.273-12.444-113.461-28.548-46.117-28.548-46.117l-.073-.849-.659-7.935s.608-.651,1.654-1.83c6.522-7.371,29.946-35.3,26.162-52.339-4.392-19.764-37.332-29.28-57.1-30.012s-36.6,16.836-36.6,16.836l2.855,11.968,12.517,52.448.19,1.1,2.006,11.346c-3.682.227-6.061,1.039-7.591,2.042a5.225,5.225,0,0,0-2.657,5.278l-11.207,72.205Z" transform="translate(384.814 101.182)"/><path class="e" d="M167.563,475s3.235,31.91-4.6,32.791S157.315,475,157.315,475Z" transform="translate(500.359 40.876)"/><path class="g" d="M158.915,279s12.444-.732,14.64,13.176,4.392,67.345,4.392,67.345l12.444,66.613-25.62,2.928L147.935,328.042Z" transform="translate(484.851 93.405)"/><path class="e" d="M318.542,477s-5.124,29.28,2.928,30.012,10.98-28.548,10.98-28.548Z" transform="translate(219.083 40.34)"/><path d="M213.478,168.066a24.754,24.754,0,0,1,5.987.4,25.225,25.225,0,0,1,6.192,2.555c9.068,4.815,18.033,11.09,22.29,20.434,3.495,7.672,3.374,16.5,2.233,24.851-.367,2.687-.831,5.435-.264,8.087,1.167,5.458,6.319,9.126,8.659,14.194,2.4,5.2,1.563,11.424-.836,16.623-.685,1.484-1.513,3.079-1.131,4.668a6.076,6.076,0,0,0,1.218,2.2,89.862,89.862,0,0,1,5.689,7.337c1.624,2.637,2.672,5.816,1.991,8.837-.7,3.12-3.088,5.543-5.37,7.785-2.141,2.1-4.66,4.359-7.657,4.2a10.917,10.917,0,0,1-4.96-2.025c-4.6-2.847-9.674-6.379-10.4-11.744-1.41,4.8-7.086,6.891-12.077,7.229-4.24.288-8.677-.23-12.31-2.437s-6.275-6.36-5.811-10.585c.362-3.3,2.472-6.726.986-9.692-1.128-2.252-3.829-3.1-5.95-4.462a12.425,12.425,0,0,1-5.189-13.185c1.318-5.136,5.989-9.6,5.027-14.819-.567-3.076-3.017-5.464-4.047-8.417-1.229-3.523-.3-7.45,1.23-10.853s3.648-6.535,4.954-10.03a8.046,8.046,0,0,0,.611-4.4c-.659-3.151-4.2-4.8-7.4-5.169s-6.552.048-9.549-1.128c-2.777-1.09-6.2-4.571-5.695-7.852.475-3.092,4.812-5.441,7.223-6.867C196.391,169.508,205.164,168.25,213.478,168.066Z" transform="translate(384.701 123.141)"/><path class="h" d="M263.652,372.265l-.659-7.935s.608-.651,1.654-1.83H212.675l2.006,11.346c-3.682.227,1.164-1.369-.366-.366C227.191,372.382,250.329,372.316,263.652,372.265Z" transform="translate(363.204 71.025)"/><path class="i" d="M280.935,457.525l10.475,1L302.39,378c-3.682.227-6.061,1.039-7.591,2.042a5.225,5.225,0,0,0-2.657,5.278Z" transform="translate(275.495 66.871)"/><path class="g" d="M283.219,177.5l-17.568,1.464L236.37,333.418l30.744,2.928L289.075,216.3Z" transform="translate(294.667 189.046)"/><path class="i" d="M144.37,293l15.006,71.371L146.564,293Z" transform="translate(491.71 158.093)"/><path d="M305.253,700l19.032,2.928-2.2,23.424s6.588,3.66,2.2,15.372-4.392,14.64-4.392,14.64l-15.078-1.459c-5.843-.565-19.887-5.832-21.889-11.351-.83-2.289,8.032-2.765,9.882-3.294C297.933,738.8,305.253,700,305.253,700Z" transform="translate(250.671 -19.422)"/><ellipse class="e" cx="2.196" cy="3.66" rx="2.196" ry="3.66" transform="translate(585.642 332.384) rotate(-150)"/><path class="a" d="M5.523,47.461a5.994,5.994,0,1,1,2.342.479A6,6,0,0,1,5.523,47.461Zm7.649-17.633,11.7-27.741a2,2,0,0,1,2.843-.954l6.468,3.734a2,2,0,0,1,.595,2.939L16.61,31.812a1.921,1.921,0,0,1-1.556.809A2.005,2.005,0,0,1,13.172,29.828Z" transform="translate(619.047 236.658)"/></svg>