<svg xmlns="http://www.w3.org/2000/svg" width="653.945" height="684.899" viewBox="0 0 653.945 684.899"><defs><style>.a{fill:#ffc400;}.b{fill:#d2d2d2;}.c{opacity:0.1;}.d{fill:#fff;}.e{fill:#fc8c8c;}.f{fill:#e20000;}</style></defs><path class="a" d="M250.686,0c138.45,0,250.686,112.236,250.686,250.686S389.136,501.371,250.686,501.371,0,389.136,0,250.686,112.236,0,250.686,0Z"/><path class="b" d="M394.232,361.232s19.709,55.477,10.949,75.186-22.629,38.688-22.629,38.688S387.662,364.882,394.232,361.232Z" transform="translate(104.919 -88.112)"/><path class="c" d="M394.232,361.232s19.709,55.477,10.949,75.186-22.629,38.688-22.629,38.688S387.662,364.882,394.232,361.232Z" transform="translate(104.919 -88.112)"/><path d="M493.641,515.451s1.46,13.869,2.19,14.6-.73,2.19,0,4.38,1.46,5.11,0,5.84,8.03,64.966,8.03,64.966,23.359,30.658,13.869,78.836l-2.92,48.907s-22.629,1.46-22.629-6.57a133.734,133.734,0,0,0,1.46-13.869c0-4.38-3.65-4.38-1.46-6.57s2.19-3.65,2.19-3.65-3.65-2.92-2.92-3.65-6.57-52.557-6.57-52.557-8.03-8.03-8.03-12.409v-4.38s-3.65-9.49-3.65-10.22-19.709-45.257-19.709-45.257l-8.03,32.118-8.76,45.987s-4.38,41.608-13.139,57.667c0,0-15.329,52.557-15.329,51.1s-25.549-5.11-24.819-11.679,15.329-98.545,15.329-98.545l-3.65-136.5Z" transform="translate(-8.359 -113.858)"/><path class="a" d="M419.657,771.2s19.709,38.688,6.57,40.148-18.249,1.46-24.089-4.38c-3.193-3.193-9.658-7.476-14.863-10.7a19.221,19.221,0,0,1-9.12-18.277c.385-3.571,1.719-6.514,5-6.788,8.76-.73,18.979-8.76,18.979-8.76Z" transform="translate(85.334 -155.731)"/><path class="a" d="M550.468,805.442s19.709,38.688,6.57,40.148-18.249,1.46-24.089-4.38c-3.193-3.193-9.658-7.476-14.863-10.7a19.221,19.221,0,0,1-9.12-18.277c.385-3.571,1.719-6.514,5-6.788,8.76-.73,18.979-8.759,18.979-8.759Z" transform="translate(-154.241 -161.502)"/><path class="d" d="M89.3-83.483a93.719,93.719,0,0,1-3.254,26.194,53.913,53.913,0,0,1-8.969,18.375A35.955,35.955,0,0,1,63.539-28.119a40.487,40.487,0,0,1-16.867,3.532,40.216,40.216,0,0,1-16.827-3.532A35.4,35.4,0,0,1,16.43-38.914,54.3,54.3,0,0,1,7.58-57.289,94.81,94.81,0,0,1,4.365-83.483q0-15.081,3.215-26.154a54.323,54.323,0,0,1,8.85-18.336,35.4,35.4,0,0,1,13.414-10.795A40.217,40.217,0,0,1,46.672-142.3a40.487,40.487,0,0,1,16.867,3.532,35.954,35.954,0,0,1,13.533,10.795,53.941,53.941,0,0,1,8.969,18.336Q89.3-98.564,89.3-83.483Zm-22.622,0a98.5,98.5,0,0,0-1.707-20.161,41.432,41.432,0,0,0-4.485-12.541,16.342,16.342,0,0,0-6.39-6.429,16.269,16.269,0,0,0-7.422-1.826,15.793,15.793,0,0,0-7.342,1.826,16.3,16.3,0,0,0-6.271,6.429,41.564,41.564,0,0,0-4.405,12.541,100.779,100.779,0,0,0-1.667,20.161,101.275,101.275,0,0,0,1.667,20.241A41.564,41.564,0,0,0,33.059-50.7a16.3,16.3,0,0,0,6.271,6.429,15.793,15.793,0,0,0,7.342,1.826,16.269,16.269,0,0,0,7.422-1.826,16.342,16.342,0,0,0,6.39-6.429,41.432,41.432,0,0,0,4.485-12.541A98.984,98.984,0,0,0,66.674-83.483Z" transform="translate(165.554 290.966)"/><path class="d" d="M47.671-80.357a100.428,100.428,0,0,1,10.046-1.51q4.82-.465,9.349-.465a63.476,63.476,0,0,1,23.4,4.007A48.957,48.957,0,0,1,107.538-67.35a45.312,45.312,0,0,1,10.394,16.375,57.722,57.722,0,0,1,3.484,20.207,61.633,61.633,0,0,1-4.762,24.562,56.565,56.565,0,0,1-13.181,19.046A59.521,59.521,0,0,1,83.382,25.209,71.517,71.517,0,0,1,57.89,29.622a68.155,68.155,0,0,1-15.33-1.684,73.288,73.288,0,0,1-13.646-4.529,76.951,76.951,0,0,1-11.788-6.562A78.19,78.19,0,0,1,7.372,9.066L17.243-4.405a9.638,9.638,0,0,1,8.129-4.3,11.619,11.619,0,0,1,6.155,1.858q3.019,1.858,6.852,4.123A53.608,53.608,0,0,0,47.322,1.4,36.539,36.539,0,0,0,59.749,3.259,31.878,31.878,0,0,0,72.872.763,25.413,25.413,0,0,0,82.1-6.089a28.719,28.719,0,0,0,5.458-10.336,44.32,44.32,0,0,0,1.8-12.833q0-13.123-7.491-20.265T60.1-56.666a67.153,67.153,0,0,0-23.575,4.413L16.663-57.827l14.168-82.92h84.546v13.472a17.827,17.827,0,0,1-.987,6.1,11.66,11.66,0,0,1-3.252,4.762,15.424,15.424,0,0,1-5.807,3.136,29.394,29.394,0,0,1-8.652,1.1H53.129Z" transform="translate(38.22 304.715)"/><path class="d" d="M106.794-71.365q0,18.188-3.925,31.59T92.052-17.614A43.362,43.362,0,0,1,75.73-4.595,48.828,48.828,0,0,1,55.388-.335a48.5,48.5,0,0,1-20.294-4.26A42.691,42.691,0,0,1,18.916-17.614q-6.8-8.759-10.674-22.161T4.365-71.365q0-18.188,3.877-31.542T18.916-125.02a42.691,42.691,0,0,1,16.178-13.019,48.5,48.5,0,0,1,20.294-4.26,48.828,48.828,0,0,1,20.342,4.26A43.362,43.362,0,0,1,92.052-125.02q6.892,8.759,10.817,22.113T106.794-71.365Zm-27.282,0q0-14.742-2.058-24.315T72.044-110.8a19.709,19.709,0,0,0-7.706-7.754,19.621,19.621,0,0,0-8.951-2.2,19.047,19.047,0,0,0-8.855,2.2q-4.26,2.2-7.562,7.754T33.658-95.68a121.543,121.543,0,0,0-2.01,24.315q0,14.838,2.01,24.411t5.313,15.125q3.3,5.552,7.562,7.754a19.047,19.047,0,0,0,8.855,2.2,19.621,19.621,0,0,0,8.951-2.2,19.709,19.709,0,0,0,7.706-7.754q3.35-5.552,5.409-15.125T79.511-71.365Z" transform="translate(259.877 314.547)"/><ellipse class="e" cx="30.685" cy="30.685" rx="30.685" ry="30.685" transform="translate(386.372 148.439)"/><path class="e" d="M473.827,260.308s21.918,40.329,23.671,40.329-39.452,13.151-39.452,13.151-11.4-38.575-13.151-42.082Z" transform="translate(-37.044 -71.102)"/><path class="b" d="M413.607,308.647s43.8-24.089,48.177-23.359,51.1,41.608,50.367,58.4-6.57,44.528-6.57,44.528-2.19,77.376-6.57,78.106.73,13.869-.73,13.869-102.194,0-102.924-2.19S413.607,308.647,413.607,308.647Z" transform="translate(-10.445 -75.31)"/><path class="e" d="M532.587,521.892s-13.869,42.338-2.19,40.878,16.789-36.5,16.789-36.5Z" transform="translate(-153.879 -115.189)"/><path class="b" d="M510.128,310.3s27.009,5.84,22.629,42.338-12.409,73-12.409,73l-27.009,59.127-2.92,10.949L470.71,490.6l14.6-84.675s5.11-90.515,11.679-93.435A28.269,28.269,0,0,1,510.128,310.3Z" transform="translate(-94.192 -79.515)"/><path class="c" d="M311.079,414.306,277.5,474.162l28.29-63.072Z" transform="translate(121.281 -69.284)"/><path d="M459.921,231.656l-.1-2.345-4.665,1.161a5.213,5.213,0,0,1,2.09-3.837l-4.969-.278a53.61,53.61,0,0,1,35.856-22.16c10.747-1.558,22.714.7,30.084,8.672,3.575,3.869,5.821,8.789,7.419,13.808,2.943,9.244,3.542,20.264-2.594,27.779-6.237,7.637-17.13,9.133-26.944,10.078-3.453.333-7.072.642-10.272-.7A24.711,24.711,0,0,1,487.2,253a7.222,7.222,0,0,0,.731-3.453c-.436-2.92-4.331-3.655-7.257-3.261s-6.444,1-8.366-1.242c-1.324-1.543-1.246-3.791-1.421-5.817C470.408,233.709,459.971,232.813,459.921,231.656Z" transform="translate(-73.412 -61.568)"/><ellipse class="f" cx="35.753" cy="35.753" rx="35.753" ry="35.753" transform="translate(162.551 583.27)"/><ellipse class="f" cx="35.753" cy="35.753" rx="35.753" ry="35.753" transform="translate(582.439 570.798)"/><ellipse class="f" cx="25.775" cy="25.775" rx="25.775" ry="25.775" transform="translate(592.416 533.383)"/><ellipse class="f" cx="18.292" cy="18.292" rx="18.292" ry="18.292" transform="translate(599.9 500.956)"/><path class="d" d="M11.305-.652l-.011,1.694H1.83v-15.36h9.464v1.694H3.909v5.1H9.89v1.629H3.909V-.652Zm7.16-6.227a5.257,5.257,0,0,0,1.592-.22,3.26,3.26,0,0,0,1.158-.622,2.579,2.579,0,0,0,.7-.959,3.133,3.133,0,0,0,.236-1.233,2.454,2.454,0,0,0-.9-2.069,4.374,4.374,0,0,0-2.7-.7H16.279v5.8Zm7.1,7.921H23.717A.909.909,0,0,1,22.881.6L18.894-4.886a1.182,1.182,0,0,0-.391-.37,1.425,1.425,0,0,0-.648-.113H16.279v6.41H14.21v-15.36h4.341a9.485,9.485,0,0,1,2.519.295,4.807,4.807,0,0,1,1.752.852,3.412,3.412,0,0,1,1.024,1.345,4.5,4.5,0,0,1,.332,1.763,4.42,4.42,0,0,1-.257,1.522,4.02,4.02,0,0,1-.745,1.27,4.457,4.457,0,0,1-1.19.959,5.89,5.89,0,0,1-1.592.6,2.054,2.054,0,0,1,.686.654ZM31.9-6.88a5.257,5.257,0,0,0,1.592-.22,3.261,3.261,0,0,0,1.158-.622,2.579,2.579,0,0,0,.7-.959,3.132,3.132,0,0,0,.236-1.233,2.454,2.454,0,0,0-.9-2.069,4.374,4.374,0,0,0-2.7-.7H29.709v5.8Zm7.1,7.921H37.148A.909.909,0,0,1,36.311.6L32.324-4.886a1.182,1.182,0,0,0-.391-.37,1.425,1.425,0,0,0-.648-.113H29.709v6.41H27.64v-15.36h4.341a9.485,9.485,0,0,1,2.519.295,4.807,4.807,0,0,1,1.752.852,3.412,3.412,0,0,1,1.024,1.345,4.5,4.5,0,0,1,.332,1.763,4.42,4.42,0,0,1-.257,1.522,4.02,4.02,0,0,1-.745,1.27,4.457,4.457,0,0,1-1.19.959,5.89,5.89,0,0,1-1.592.6,2.054,2.054,0,0,1,.686.654ZM55.112-6.633a8.866,8.866,0,0,1-.547,3.167A7.253,7.253,0,0,1,53.022-.985a6.9,6.9,0,0,1-2.4,1.613,8.078,8.078,0,0,1-3.092.573A8.038,8.038,0,0,1,44.447.628a6.91,6.91,0,0,1-2.39-1.613,7.253,7.253,0,0,1-1.543-2.481,8.866,8.866,0,0,1-.547-3.167A8.866,8.866,0,0,1,40.513-9.8a7.311,7.311,0,0,1,1.543-2.487,6.936,6.936,0,0,1,2.39-1.624,7.973,7.973,0,0,1,3.087-.579,8.013,8.013,0,0,1,3.092.579,6.924,6.924,0,0,1,2.4,1.624A7.311,7.311,0,0,1,54.565-9.8,8.866,8.866,0,0,1,55.112-6.633Zm-2.133,0a7.806,7.806,0,0,0-.386-2.54,5.373,5.373,0,0,0-1.093-1.9,4.744,4.744,0,0,0-1.715-1.2,5.822,5.822,0,0,0-2.251-.418,5.793,5.793,0,0,0-2.24.418,4.8,4.8,0,0,0-1.72,1.2,5.329,5.329,0,0,0-1.1,1.9,7.806,7.806,0,0,0-.386,2.54A7.757,7.757,0,0,0,42.475-4.1a5.336,5.336,0,0,0,1.1,1.9,4.738,4.738,0,0,0,1.72,1.19,5.859,5.859,0,0,0,2.24.413,5.888,5.888,0,0,0,2.251-.413A4.688,4.688,0,0,0,51.5-2.2a5.38,5.38,0,0,0,1.093-1.9A7.757,7.757,0,0,0,52.979-6.633Zm9.357-.247a5.257,5.257,0,0,0,1.592-.22,3.261,3.261,0,0,0,1.158-.622,2.579,2.579,0,0,0,.7-.959,3.133,3.133,0,0,0,.236-1.233,2.454,2.454,0,0,0-.9-2.069,4.373,4.373,0,0,0-2.7-.7H60.149v5.8Zm7.1,7.921H67.588A.909.909,0,0,1,66.752.6L62.765-4.886a1.182,1.182,0,0,0-.391-.37,1.425,1.425,0,0,0-.648-.113H60.149v6.41H58.081v-15.36h4.341a9.485,9.485,0,0,1,2.519.295,4.807,4.807,0,0,1,1.752.852,3.412,3.412,0,0,1,1.024,1.345,4.5,4.5,0,0,1,.332,1.763,4.42,4.42,0,0,1-.257,1.522,4.02,4.02,0,0,1-.745,1.27,4.457,4.457,0,0,1-1.19.959,5.89,5.89,0,0,1-1.592.6,2.054,2.054,0,0,1,.686.654Z" transform="translate(282.204 346.239)"/><path class="f" d="M5.523,47.461a5.995,5.995,0,1,1,2.342.479A6,6,0,0,1,5.523,47.461Zm7.65-17.634,11.7-27.74a2,2,0,0,1,2.843-.955l6.468,3.735a2,2,0,0,1,.594,2.939L16.611,31.813a1.921,1.921,0,0,1-1.556.809A2.006,2.006,0,0,1,13.172,29.827Z" transform="translate(430.976 87.215)"/></svg>