<svg xmlns="http://www.w3.org/2000/svg" width="12.85" height="13.281" viewBox="0 0 12.85 13.281"><defs><style>.a{fill:#e20000;}</style></defs><path class="a" d="M11.427-18.334a7.8,7.8,0,0,1-.731.356,3.8,3.8,0,0,1-.731.225,4.312,4.312,0,0,1,1.461.6l2.735,1.63-1.349,2.229-2.735-1.63a4.693,4.693,0,0,1-1.2-.9A4.533,4.533,0,0,1,9.1-14.381V-11.1H6.37v-3.241a6.187,6.187,0,0,1,.047-.768,3.7,3.7,0,0,1,.159-.712,3.629,3.629,0,0,1-.543.478q-.3.215-.637.421L2.661-13.332,1.312-15.561l2.735-1.592a5.213,5.213,0,0,1,1.442-.6,2.959,2.959,0,0,1-.721-.215,7.108,7.108,0,0,1-.721-.365l-2.735-1.63,1.349-2.248L5.4-20.563a4.693,4.693,0,0,1,1.2.9,4.532,4.532,0,0,1-.225-1.442v-3.278H9.1v3.241a6.187,6.187,0,0,1-.047.768,3.7,3.7,0,0,1-.159.712,3.629,3.629,0,0,1,.543-.478q.3-.215.637-.421l2.735-1.611,1.349,2.248Z" transform="translate(-1.312 24.384)"/></svg>
