<svg xmlns="http://www.w3.org/2000/svg" width="727.805" height="607.674" viewBox="0 0 727.805 607.674"><defs><style>.a{fill:#ffc400;}.b{fill:#fc8c8c;}.c{fill:#505050;}.d{fill:#bababa;}.e{fill:#ededed;}.f{fill:#d2d2d2;}.g{opacity:0.1;}</style></defs><path class="a" d="M806.284,720.69H364.5l.2-46.84c.5-118.521,95.105-216.182,213.61-218.2q1.92-.033,3.847-.033h0a223.475,223.475,0,0,1,78.112,14.033C744.12,500.881,800.4,580.221,804.145,669.62Z" transform="translate(-215.113 -146.645)"/><rect width="727.805" height="1.822" transform="translate(0 574.045)"/><path d="M398.287,396.876l19.466,14.158L437.22,577.383h46.011L467.3,388.027,403.6,363.252Z" transform="translate(-35.49 -32.33)"/><path d="M509.361,454.535s-5.309,60.169,15.927,61.939,102.641-17.7,102.641-17.7l38.933,138.034,58.4-30.084S689.867,451,668.631,442.148,576.608,415.6,576.608,415.6l-51.32,8.848Z" transform="translate(-227.969 -143.079)"/><path d="M648.715,710.906s-10.618,40.7-3.539,44.242a128.027,128.027,0,0,1,12.388,7.079v-7.079s8.848,8.848,8.848,15.927,47.781,8.848,47.781,0-1.77-19.466-10.618-24.775-19.466-35.393-19.466-35.393Z" transform="translate(-239.906 -169.392)"/><path d="M505.14,513.232l3.539,33.624,12.388,21.236,30.084-33.624L528.146,497.3Z" transform="translate(-45.011 -44.274)"/><path d="M733.955,666.193s6.516-22.281,12.991-19.989,31.25,25.3,31.25,25.3l17.7,10.618s35.393,3.539,24.775,14.157-49.551,24.775-67.248,17.7-21.236-8.848-21.236-8.848l-5.309,3.539-21.236-5.309,3.539-37.163S714.488,682.12,733.955,666.193Z" transform="translate(-245.511 -163.612)"/><circle class="b" cx="40.702" cy="40.702" r="40.702" transform="translate(300.859 8.842)"/><path class="b" d="M546.242,195.909s3.539,37.163-7.079,37.163,1.77,46.012,30.084,46.012,38.933-54.86,38.933-54.86-19.466-7.079-15.927-30.084S546.242,195.909,546.242,195.909Z" transform="translate(-230.341 -122.473)"/><path class="c" d="M538.313,233.471l-14.877,6.374-40.375,17.082a8.2,8.2,0,0,0-4.952,8.466l15.243,135.492s-15.927,33.624,8.848,35.393l3.539,12.388,28.315-33.624,106.18-3.539L642,239.845l-48.583-19.2S586.813,257.181,538.313,233.471Z" transform="translate(-225.232 -125.707)"/><path class="c" d="M486.936,265.8l-6.54-1.868a5.392,5.392,0,0,0-6.805,4.335L456.237,377.13a37.8,37.8,0,0,0,3.693,23.607c5.362,10.153,16.5,19.361,39.394,8.411L515.251,294.12Z" transform="translate(-223.241 -129.546)"/><path class="c" d="M635.7,238.809l21.236,3.539,58.4,81.4,5.309,14.157,33.624-10.618s-1.77,15.927,15.927,14.157c0,0-21.236,58.4-65.478,40.7s-58.4-70.787-58.4-70.787Z" transform="translate(-239.279 -127.326)"/><path class="d" d="M454.263,158.087l-79.636-31.855-3.539,10.618L408.251,168.7Z" transform="translate(-33.066 -11.21)"/><path d="M546.131,168.56c1.5-.4,1.724-2.4,1.775-3.952.27-8.328,5.285-16.873,13.256-19.3a22.286,22.286,0,0,1,9.394-.517,35.583,35.583,0,0,1,12.722,4.244c2.076,1.167,4.113,2.573,6.468,2.93,1.555.235,8.29,2.193,9.838,2.469,3.405.606,6.569,3.652,9.837,2.519,3.126-1.085,3.818-5.132,3.893-8.44.172-7.536-5.549-17.966-10.588-23.572-3.824-4.254-9.582-6.218-15.21-7.239a101.263,101.263,0,0,0-19.892-1.21c-9.007.161-18.265.856-26.387,4.753S526.293,132.9,525.9,141.9c-.081,1.875.112,3.758-.045,5.628-.385,4.562-2.807,8.682-3.943,13.117a24,24,0,0,0,3.352,19.181c3.014,4.436,15.069,8.463,14.894,13.824,2.179-2.257-2.959-4.529-.78-6.787a5.368,5.368,0,0,0,1.6-6.558l-2.313-9.024c-.424-1.652-.84-3.441-.2-5.022C540.943,160.131,543.624,169.229,546.131,168.56Z" transform="translate(-229.076 -116.42)"/><path class="e" d="M367.8,134.946,334.175,265.9l130.956,46.012,76.1-63.709,47.781-143.343-77.866,56.629Z" transform="translate(-29.777 -9.306)"/><rect class="f" width="1.769" height="131.778" transform="matrix(0.255, -0.967, 0.967, 0.255, 343.988, 141.538)"/><rect class="f" width="1.769" height="131.778" transform="matrix(0.255, -0.967, 0.967, 0.255, 340.449, 150.386)"/><rect class="f" width="1.769" height="131.778" transform="matrix(0.255, -0.967, 0.967, 0.255, 338.679, 159.235)"/><rect class="f" width="1.769" height="131.778" transform="matrix(0.255, -0.967, 0.967, 0.255, 336.91, 168.083)"/><rect class="f" width="1.769" height="131.778" transform="matrix(0.255, -0.967, 0.967, 0.255, 335.14, 176.931)"/><rect class="f" width="1.769" height="131.778" transform="matrix(0.255, -0.967, 0.967, 0.255, 333.37, 185.78)"/><rect class="f" width="1.769" height="131.778" transform="matrix(0.255, -0.967, 0.967, 0.255, 331.601, 194.628)"/><rect class="f" width="1.769" height="131.778" transform="matrix(0.255, -0.967, 0.967, 0.255, 329.831, 203.476)"/><rect class="f" width="1.769" height="131.778" transform="matrix(0.255, -0.967, 0.967, 0.255, 328.061, 212.325)"/><path class="b" d="M512.35,358.8s39.8-23.773,57.5-7.846-51.321,38.933-51.321,38.933Z" transform="translate(-228.288 -136.829)"/><path class="c" d="M464.485,370.957l51.321-19.466s-8.848,33.624,8.848,35.393l-24.775,30.084S450.328,416.969,464.485,370.957Z" transform="translate(-223.796 -137.366)"/><path class="f" d="M410.917,255.6l68.1,22.952L462.9,313.683l-68.1-22.951Z" transform="translate(-35.179 -22.737)"/><path class="d" d="M543.409,170.022l51.321-38.933-14.157,47.782L527.482,217.8Z" transform="translate(-47.002 -11.643)"/><rect class="f" width="64.417" height="1.77" transform="matrix(0.797, -0.604, 0.604, 0.797, 471.096, 223.148)"/><rect class="f" width="64.417" height="1.77" transform="matrix(0.797, -0.604, 0.604, 0.797, 467.556, 242.614)"/><path class="b" d="M776.3,349.625s44.242-26.545,15.927-37.163-28.315,30.084-28.315,30.084S762.147,351.395,776.3,349.625Z" transform="translate(-250.697 -133.731)"/><path class="g" d="M292.232,171.888l-1.77,69.018,27.43-7.828-22.121.749Z" transform="translate(-25.882 -15.278)"/><path class="d" d="M280.745,708.349c5.532,20.45,24.48,33.115,24.48,33.115s9.979-20.49,4.447-40.94-24.48-33.115-24.48-33.115S275.213,687.9,280.745,708.349Z" transform="translate(-207.501 -165.516)"/><path class="c" d="M286.122,705.962c15.18,14.777,17.034,37.493,17.034,37.493s-22.757-1.243-37.937-16.02-17.034-37.493-17.034-37.493S270.942,691.185,286.122,705.962Z" transform="translate(-204.749 -167.524)"/><rect class="e" width="27.327" height="27.327" transform="translate(570.22 345.411)"/><rect class="e" width="27.327" height="27.327" transform="translate(460.913 35.707)"/><circle class="e" cx="13.663" cy="13.663" r="13.663" transform="translate(131.169 285.292)"/></svg>