<svg xmlns="http://www.w3.org/2000/svg" width="357.059" height="381.603" viewBox="0 0 357.059 381.603"><defs><style>.a{fill:#d56200;}.b{fill:#d0cde1;}.c{fill:#e20000;}.d{opacity:0.1;}.e{fill:#505050;}.f{fill:#ffc400;}.g{fill:none;stroke:#505050;stroke-width:2px;}</style></defs><g transform="translate(-682.469 -2488.473)"><g transform="translate(143 15)"><path d="M459.8,236.115c-14.324-24.2-42.663-25.331-42.663-25.331s-27.615-3.531-45.33,33.331c-16.512,34.359-39.3,67.533-3.669,75.576l6.436-20.032,3.986,21.523a139.425,139.425,0,0,0,15.245.261c38.158-1.232,74.5.36,73.328-13.332C465.58,289.907,473.586,259.4,459.8,236.115Z" transform="translate(245.828 2317.697)"/><path d="M373.717,602.885a56.5,56.5,0,0,1-1.827,7.866c-.9,2.52-2.28,4.851-3.1,7.4-2.612,8.117,1.009,17.167,6.793,23.433a38.238,38.238,0,0,0,18.643,11.07c5.218,1.312,10.644,1.5,16.021,1.684,14.891.505,30.165.957,44.274-3.829a76.924,76.924,0,0,0,12.863-5.844,9.631,9.631,0,0,0,3.338-2.628,9.185,9.185,0,0,0,1.2-5.391c-.032-6.313-1.311-12.593-1.008-18.9.168-3.492.822-6.982.5-10.464a19.3,19.3,0,0,0-14.753-16.629c-4-.86-8.154-.391-12.229,0a311.818,311.818,0,0,1-31.827,1.423c-10.857-.069-21.648-1.727-32.451-1.9-3.195-.051-3.13.934-4.148,4.026A75.315,75.315,0,0,0,373.717,602.885Z" transform="translate(238.219 2162.89)"/><path class="a" d="M420.81,339.4c-.522,2.732-1.086,5.564-2.727,7.809-1.889,2.583-4.969,4.059-7,6.531-3.059,3.721-3.234,8.957-3.247,13.774-.012,4.437.079,9.17,2.553,12.853,1.606,2.39,4.05,4.066,6.438,5.676,9.28,6.254,19.308,12.62,30.5,12.826,4.636.085,9.606-1.112,12.657-4.6a19,19,0,0,0,3.064-5.467,72.6,72.6,0,0,0,5.139-22.1,25.952,25.952,0,0,0-.978-10.617c-1.359-3.79-4.107-6.908-5.924-10.5a23.377,23.377,0,0,1-2.25-13.833,1.493,1.493,0,0,0-.079-1,1.46,1.46,0,0,0-1.2-.488l-22.185-1.6a48.278,48.278,0,0,1-6.16-.7c-1.2-.243-4.355-1.942-5.495-1.49C421.8,327.3,421.243,337.138,420.81,339.4Z" transform="translate(221.938 2270.498)"/><ellipse class="a" cx="32.548" cy="32.548" rx="32.548" ry="32.548" transform="translate(631.416 2547.78)"/><path class="b" d="M429.358,406.578a19.961,19.961,0,0,0,5.717,4.568,17.963,17.963,0,0,0,7.142,1.36c5.867.165,12.227-.91,16.309-5.128,5.261-5.437,5.088-14.207,9.212-20.55a4.578,4.578,0,0,1,1.329-1.453,4.308,4.308,0,0,1,2.26-.52c5.208-.049,9.745,3.329,13.84,6.548a18.231,18.231,0,0,1,4.871,4.962,16.818,16.818,0,0,1,1.643,5.031c2.032,9.919,2.69,20.061,3.343,30.164.361,5.581.722,11.167.695,16.759-.088,18.424-4.371,36.541-8.629,54.466-.549,2.31-1.3,4.891-3.4,6a8.384,8.384,0,0,1-2.967.724c-12.2,1.432-24.42,2.867-36.7,3.056q-7.188.111-14.37-.348a7.736,7.736,0,0,1-2.421-.422,6.826,6.826,0,0,1-2.639-2.241c-6.642-8.37-7.034-19.942-6.992-30.628q.156-39.187,2.8-78.312c.146-2.153.177-4.768-1.374-6.461C421.819,398.623,425.7,402.759,429.358,406.578Z" transform="translate(217.955 2246.65)"/><path class="c" d="M391.2,356.068c-1.1,1.99-9.2,6.931-10.768,8.58-8.742,9.215-24.7,8.869-32.693,18.738-2.813,3.472-4.274,7.836-5.349,12.173-1.52,6.135-2.332,12.826.215,18.61,2.45,5.566,7.609,9.414,11.111,14.386,3.845,5.459,5.574,12.088,7.231,18.556,1.223,4.776,2.457,9.671,1.981,14.578-.542,5.58-3.242,10.689-4.836,16.063s-1.869,11.775,1.817,16c2.708,3.1,6.956,4.333,11.015,5.025a126.55,126.55,0,0,0,15.7,1.367c4.641.205,9.757.245,13.325-2.73,2.815-2.348,4.039-6.157,4.2-9.819s-.6-7.292-1.081-10.926c-.495-3.768-.685-7.568-.844-11.364q-1.071-25.552-.292-51.137a43.517,43.517,0,0,0-.518-10.611c-1-4.563-3.461-8.64-5.519-12.833-4.084-8.321-6.016-16.4-5.384-25.653C391.132,355.942,395.113,348.987,391.2,356.068Z" transform="translate(249.217 2259.578)"/><path class="c" d="M495.264,354.573c1.674,1.721,7.364,2.288,9.494,3.4A33.262,33.262,0,0,0,511,360.13a81.023,81.023,0,0,1,21.925,10.063,13.306,13.306,0,0,1,3.666,3.167,14.517,14.517,0,0,1,2.028,5.727c1.043,5.166,2.091,10.395,1.857,15.66-.249,5.589-1.932,11-3.6,16.341l-6.24,19.951c-4.658,14.892-9.346,29.93-10.656,45.478a106.976,106.976,0,0,0,.96,25.83,3.062,3.062,0,0,1-.315,2.5,2.464,2.464,0,0,1-1.528.7c-3.012.471-5.927-1.065-8.656-2.424a95.852,95.852,0,0,0-26.423-8.646,61.427,61.427,0,0,0,8.207-16.918,102.4,102.4,0,0,0,2.48-11.635l2.9-16.79a164.986,164.986,0,0,0,2.49-18.567,23.244,23.244,0,0,0-.4-6.994,33.929,33.929,0,0,0-2.651-6.307c-4.784-9.952-7.029-21.308-5.147-32.189.824-4.762,2.425-9.529,1.757-14.315-.642-4.6.025-8.178-1.155-12.732C487.647,339.337,492.114,351.335,495.264,354.573Z" transform="translate(190.859 2261.766)"/><path class="c" d="M346.963,421.639c-2.181,4.526-5.827,8.382-7.069,13.25a28.948,28.948,0,0,0-.616,6.925c-.029,3.5-.049,7.079,1.027,10.413.693,2.147,1.82,4.127,2.631,6.232a22.6,22.6,0,0,1,1.48,9.232c-.219,4.36-1.7,8.592-1.816,12.955-.182,6.862,2.992,13.313,6.089,19.44a14.291,14.291,0,0,1,20.772-6.8,4.259,4.259,0,0,0,.936-3.105q.343-11.942.662-23.884c.335-12.313.655-24.791-2.178-36.779-1.279-5.413-3.269-10.8-6.917-15-1.921-2.21-8.442-8.033-11.595-5.557-1.418,1.114-1.087,4.145-1.311,5.68A24.1,24.1,0,0,1,346.963,421.639Z" transform="translate(249.912 2237.06)"/><path class="c" d="M554.342,400.781a33.312,33.312,0,0,1,1.114,10.019q.063,10.323-.274,20.644a38.482,38.482,0,0,1-1.341,10.452c-.7,2.215-1.791,4.292-2.519,6.5-2.18,6.616-.989,13.791-.8,20.754a23.583,23.583,0,0,1-.571,6.713c-1.15,4.317-4.242,7.8-6.4,11.716-2.049,3.715-3.286,7.879-5.734,11.344s-6.685,6.211-10.792,5.147c-3.112-.806-5.323-3.561-6.852-6.388a31.332,31.332,0,0,1-3.24-20.324c1.535-8.451,6.5-15.948,8.29-24.349,2.458-11.536-1.278-23.44-1.167-35.235a17.033,17.033,0,0,1,.742-5.462c.939-2.694,2.956-4.846,4.819-7.006a88.46,88.46,0,0,0,6.477-8.5c1.334-1.989,3.145-7.106,5.51-7.531C546.883,388.324,553.032,396.7,554.342,400.781Z" transform="translate(177.629 2244.875)"/><path d="M285.317,602.314a32.122,32.122,0,0,0-8.937-.95,22.3,22.3,0,0,0-20.707,26.293,37.464,37.464,0,0,0,3.541,9.677c2.37,4.81,5.212,9.608,9.6,12.69a37.393,37.393,0,0,0,8.472,4.033l23.108,8.705c3.4,1.281,6.8,2.561,10.233,3.749a200.143,200.143,0,0,0,53.446,10.625c5.549.33,11.181.422,16.594-.841a5.4,5.4,0,0,0,3.4-1.836,5.819,5.819,0,0,0,.759-2.508L386.246,662a8.338,8.338,0,0,0-.121-4.2c-.651-1.673-2.284-2.725-3.841-3.62-15.192-8.726-32.93-13.539-45.717-25.515-3.01-2.819-5.529-7.288-9.187-9.2-4.148-2.172-9.032-3.411-13.319-5.412C304.689,609.676,295.474,604.648,285.317,602.314Z" transform="translate(284.162 2158.33)"/><path class="d" d="M337.832,624.072c8.168,2.559,42.652,20.291,48.563,26.481-.792.286-27.673-14.779-28.48-15.021-7.332-2.2-14.7-4.415-21.667-7.636-1.4-.648-9.1-3.693-8.751-5.46C327.889,620.443,336.382,623.618,337.832,624.072Z" transform="translate(254.717 2149.991)"/><path class="a" d="M493.994,723.522a1.918,1.918,0,0,0,1.295-.381,2,2,0,0,0,.4-1.49q-.019-6.781-.038-13.562c-3.9-1.858-8.262-2.454-12.544-3.026l-19.978-2.67c.459.061-3.124,8.6-2.574,9.745.968,2.01,8.367,3.792,10.456,4.741C478.275,720.178,485.818,723.806,493.994,723.522Z" transform="translate(200.451 2117.107)"/><path class="a" d="M402.718,705.223c-3.772.6-7.982,1.132-10.425,4.068-3.1,3.724-1.779,9.275-.3,13.887a5.98,5.98,0,0,0,1.285,2.527c1.009.995,2.554,1.141,3.968,1.23,3.44.218,7.1.389,10.107-1.3a44.291,44.291,0,0,0,3.926-2.918,25.17,25.17,0,0,1,7.218-3.3,72.986,72.986,0,0,1,14.489-2.986,22.54,22.54,0,0,0,5.708-1.006,6.325,6.325,0,0,0,4.02-3.9c.7-2.464-.736-4.977-2.11-7.139-1.711-2.692-3.524-5.527-6.076-7.509-3.722-2.892-5.564-.672-9.314,1.178A79.019,79.019,0,0,1,402.718,705.223Z" transform="translate(229.047 2119.926)"/><path d="M363.116,711.606l-23.951-7.079a31.7,31.7,0,0,0-8.913-1.727,10.7,10.7,0,0,0-8.185,3.31c-1.857,2.18-2.389,5.159-2.852,7.985l-.99,6.045a30.363,30.363,0,0,0-.555,9.283c.453,3.08,2.025,6.157,4.758,7.648,3.314,1.808,7.376.925,11.075.169a120.575,120.575,0,0,1,22.7-2.434c2.867-.034,5.874,0,8.407-1.341a10.5,10.5,0,0,0,5.122-8.364C370.2,719.936,368.48,713.191,363.116,711.606Z" transform="translate(258.793 2116.941)"/><path d="M525.979,703.944c3.1-.544,5.845-2.309,8.82-3.35,4.188-1.466,8.726-1.466,13.163-1.45a8.45,8.45,0,0,1,4.719.945c1.954,1.3,2.455,3.9,2.788,6.229l2,14.023a22.006,22.006,0,0,1,.164,7.944c-.588,2.6-2.36,5.1-4.938,5.774-3.132.814-6.2-1.186-9.159-2.5-7.391-3.285-15.983-2.445-23.689-4.9-1.43-.456-2.962-1.152-3.545-2.535a5.77,5.77,0,0,1-.276-2.423c.132-4.507-.819-10.662.538-14.97C517.788,702.856,522.513,703.944,525.979,703.944Z" transform="translate(177.881 2118.434)"/><path d="M549.795,592.587a41.593,41.593,0,0,1,14.651-1c3.917.432,7.953,1.521,10.812,4.233,3.481,3.3,4.6,8.4,4.692,13.2a41.234,41.234,0,0,1-8.962,26.334,23.9,23.9,0,0,1-5.124,4.933A33.727,33.727,0,0,1,559.2,643.5l-51.749,20.411c-13.614,5.37-27.276,10.755-41.477,14.3a3.232,3.232,0,0,1-4.35-1.577,107.211,107.211,0,0,1-11.342-20.748,1.4,1.4,0,0,1,.618-2.2l36.6-21.031a37.005,37.005,0,0,0,7.45-5.133,18.5,18.5,0,0,0,3.825-5.325c.759-1.585.829-5.324,1.8-6.5.949-1.147,4.195-1.238,5.694-1.689a51.672,51.672,0,0,0,6.2-2.343c8.188-3.663,15.479-8.985,23.328-13.274A59.852,59.852,0,0,1,549.795,592.587Z" transform="translate(204.75 2162.412)"/><path class="d" d="M543.052,617.214c-6.288,4.723-14.431,9.065-20.664,13.912-2.127,1.654-37.586,21.59-38.088,24.238,5.815.98,42.854-24.932,48.154-27.518s10-6.232,14.652-9.851c1.186-.922,6.214-3.7,2.808-4.726C548,612.689,544.468,616.27,543.052,617.214Z" transform="translate(190.742 2153.491)"/><path class="e" d="M466.174,360.015h-55.2a8.456,8.456,0,0,0-8.456,8.456v3.1h-.6v6.925h.6v4.848h-.6v4.155h.6v51.1a8.456,8.456,0,0,0,8.456,8.456h55.2a8.456,8.456,0,0,0,8.456-8.456V368.471a8.456,8.456,0,0,0-8.456-8.456Z" transform="translate(224.352 2256.781)"/><path d="M295.316,174.869l-28-14.666-38.664,6-8,35.33,19.913-.766,5.563-12.98v12.766l9.188-.353,5.333-20.665,3.333,22,32.664-.667Z" transform="translate(403.982 2376.611)"/><path class="a" d="M360.813,523.637a14.548,14.548,0,0,0,5.226,5.2,10.22,10.22,0,0,0,8.984-.241,15.813,15.813,0,0,0,6.483-6.5c3.043-5.373,3.673-11.8,3.293-17.966s-1.7-12.232-2.278-18.379c-.423-4.469-.458-8.964-.492-13.453a4.474,4.474,0,0,1,.565-2.721c.674-.92,1.908-1.174,3-1.5,6.141-1.825,10.217-7.581,13.14-13.282,1.951-3.807,3.648-7.968,3.272-12.229s-3.439-8.554-7.695-8.989c-3.508-.358-6.748,1.87-9.279,4.326a39.788,39.788,0,0,0-11.65,23.282c-.556,4.333-.4,8.783-1.575,12.989-2.516,8.981-10.389,14.487-14.312,22.568C353.175,505.649,355.56,515.758,360.813,523.637Z" transform="translate(243.387 2226.787)"/><path class="a" d="M535.059,470.872a16.973,16.973,0,0,1-9.518,9.146,13.145,13.145,0,0,1-8.274.507A9.175,9.175,0,0,1,511.2,475.1a14.6,14.6,0,0,1-.683-4.072c-.394-6.056-.242-12.3,1.958-17.954.849-2.182,1.993-4.251,2.662-6.494a32.567,32.567,0,0,0,1-7.925l.723-16.525a10.755,10.755,0,0,0-.245-3.583c-.721-2.391-2.956-3.945-5.006-5.371-4.952-3.444-9.845-7.462-12.245-13a9.115,9.115,0,0,1-.846-5.383c.677-3.281,3.988-5.406,7.261-6.121a16.242,16.242,0,0,1,19.472,13.088c.324,1.865.319,3.77.509,5.653.4,3.995,1.67,7.846,2.464,11.781,1.954,9.695.942,19.716,2.874,29.41C532.721,456.716,538.814,462,535.059,470.872Z" transform="translate(184.992 2245.24)"/><ellipse class="f" cx="6.925" cy="6.925" rx="6.925" ry="6.925" transform="translate(656.738 2640.121)"/></g><g transform="translate(19664 16921)"><path class="c" d="M472,62.026a1,1,0,0,0,.992.973.975.975,0,0,0,.908-.606h0a23.745,23.745,0,0,1,21.857-14.513h76.936a23.905,23.905,0,0,0,0-47.809H495.748A23.827,23.827,0,0,0,472,23.975Z" transform="translate(-19273.639 -14432.597)"/><path class="g" d="M472,71.575a1.149,1.149,0,0,0,1.145,1.123,1.126,1.126,0,0,0,1.048-.7h0a27.4,27.4,0,0,1,25.226-16.751h88.794a27.59,27.59,0,0,0,0-55.178h-88.8A27.5,27.5,0,0,0,472,27.659Z" transform="translate(-19241.094 -14425.84)"/></g></g></svg>