<svg xmlns="http://www.w3.org/2000/svg" width="283.412" height="690.156" viewBox="0 0 283.412 690.156"><defs><style>.a{fill:#505050;}.b{fill:#ffc400;}.c{fill:#fff;}.d{fill:#fc8c8c;}.e{fill:#e20000;}.f{opacity:0.1;}.g,.i{fill:none;}.g{stroke:#3f3d56;stroke-miterlimit:10;}.h{fill:gray;}.i{stroke:#505050;stroke-width:3px;}</style></defs><g transform="translate(-1284.857 -294)"><rect class="a" width="283.412" height="2" transform="translate(1284.857 967.559)"/><path class="b" d="M472,52.775a.847.847,0,0,0,.844.828.83.83,0,0,0,.772-.516h0a20.2,20.2,0,0,1,18.593-12.346h65.446a20.336,20.336,0,0,0,0-40.671H492.2A20.269,20.269,0,0,0,472,20.405Z" transform="translate(923.676 332.626)"/><rect class="c" width="28" height="28" transform="translate(1452.008 322) rotate(180)"/><path class="d" d="M855.656,510.77s-17.446,36.346-5.815,37.8,14.538-32.712,14.538-32.712Z" transform="translate(497.373 173.078)"/><path class="d" d="M804.178,654.464l-11.63,20.611,21.08,13.191,5.034-24.338Z" transform="translate(615 262)"/><path class="e" d="M916.839,766.86s-6.386-10.4-8.7-8.657-11.837,9.282-11.837,9.282L883.9,779.371s-41.927,4.433-15.286,19.123S909.975,801,909.975,801s37.314,1.94,36.712-8.47-12.636-26.88-12.636-26.88S918.884,775.821,916.839,766.86Z" transform="translate(497.373 173.078)"/><path d="M973.417,510.407l-10.9,131.937s-.363,78.871-11.994,94.137-11.994,22.9-11.994,22.9L914.537,747.02s8-.727,4.362-5.815-14.538,0-4.362-7.269,12.358-7.507,9.813-10.659a17.57,17.57,0,0,1-3.271-6.787l6.542-81.415-12.358-141.75Z" transform="translate(497.373 173.078)"/><path class="f" d="M973.417,510.407l-10.9,131.937s-.363,78.871-11.994,94.137-11.994,22.9-11.994,22.9L914.537,747.02s8-.727,4.362-5.815-14.538,0-4.362-7.269,12.358-7.507,9.813-10.659a17.57,17.57,0,0,1-3.271-6.787l6.542-81.415-12.358-141.75Z" transform="translate(497.373 173.078)"/><path class="g" d="M956.7,759.378" transform="translate(497.373 173.078)"/><path class="d" d="M825.986,654.464l10.177,26.9,29.077-10.9-18.173-18.9Z" transform="translate(615 262)"/><path class="e" d="M958.052,758.719s-10.865-6.791-12.223-4.074-6.791,14.26-6.791,14.26l-6.112,16.976s-37.348,23.767-5.432,25.125,40.064-16.977,40.064-16.977,35.99-15.618,30.558-25.125-24.446-19.367-24.446-19.367S964.163,766.189,958.052,758.719Z" transform="translate(497.373 173.078)"/><path d="M881.1,510.77l-5.815,121.4s28.35,80.688,53.065,93.773c0,0,0,15.992,5.815,18.9a14.6,14.6,0,0,1,7.269,8.723l31.985-8s-8-8-5.088-11.631-9.45-11.631-9.45-11.631l-31.985-77.781s-5.088-2.181-6.542-9.45-4.362-7.269,2.908-8.723,7.269-8.723,7.269-8.723l23.988-110.492Z" transform="translate(497.373 173.078)"/><circle class="d" cx="29.077" cy="29.077" r="29.077" transform="translate(1375.563 435.24)"/><path class="d" d="M933.073,293.056s2.181,37.073,5.088,40.708-30.531,2.908-30.531,2.908,2.181-31.258,0-34.165S933.073,293.056,933.073,293.056Z" transform="translate(497.373 173.078)"/><path class="h" d="M942.886,322.5s-27.623-2.908-37.8,5.815a74.8,74.8,0,0,1-10.411,7.448,21.353,21.353,0,0,0-10.36,17.679l-5.4,165.327s82.142-7.269,97.408,0c0,0,.727-16.719,2.181-18.9,1.06-1.59,2.892-64.991,3.808-99.237A75.408,75.408,0,0,0,963.228,348c-4.406-4.877-9.328-8.965-14.526-10.964C948.7,337.035,950.156,323.224,942.886,322.5Z" transform="translate(497.373 173.078)"/><path class="h" d="M898.544,337.035h0a21.472,21.472,0,0,0-15.8,17.777l-10.371,73.815-14.538,58.881s-7.269,6.542-4.362,10.177-3.635,18.9-3.635,18.9l18.173,5.815s2.181-15.265,5.815-15.992c3.194-.639,38.951-96.159,47.57-119.3,1.188-3.191,1.861-5.005,1.861-5.005S921.806,333.4,898.544,337.035Z" transform="translate(497.373 173.078)"/><path class="f" d="M922.9,381.741,878.917,500.716S921.442,420.268,922.9,381.741Z" transform="translate(497.373 173.078)"/><path d="M922.458,299.807c-2.459-.147-4.86.684-7.3,1.009-8.737,1.16-17.826-5.18-19.755-13.78a10.577,10.577,0,0,0-1.01-3.292c-1.345-2.2-4.407-2.614-6.931-2.109s-4.917,1.686-7.488,1.821c-3.969.208-7.78-2.236-9.9-5.6a18.993,18.993,0,0,1-2.429-11.471l1.9,2a9.666,9.666,0,0,0,.862-5.253,6.1,6.1,0,0,1,5.774,1.477c1.678.179.412-3.112,1.658-4.25a2.884,2.884,0,0,1,2.029-.38c3.57.034,6.457-2.7,9.27-4.894a39.392,39.392,0,0,1,16.638-7.589c4.031-.786,8.317-.913,12.14.588a25.931,25.931,0,0,1,8.2,5.815c5.985,5.755,11.284,12.516,13.774,20.437a34.4,34.4,0,0,1,.165,19.949c-1,3.386-4.027,14.982-8.453,15.253C926.041,309.876,929.38,300.22,922.458,299.807Z" transform="translate(497.373 173.078)"/><path class="i" d="M472,60.9a.977.977,0,0,0,.974.956.957.957,0,0,0,.891-.6h0A23.312,23.312,0,0,1,495.324,47.01h75.534a23.47,23.47,0,0,0,0-46.94H495.316A23.393,23.393,0,0,0,472,23.54Z" transform="translate(951.359 338.375)"/></g></svg>