<svg xmlns="http://www.w3.org/2000/svg" width="408.439" height="441.679" viewBox="0 0 408.439 441.679"><defs><style>.a{fill:#ffc400;}.b{opacity:0.1;}.c{fill:#fff;}.d{fill:#e20000;}.e{fill:#3f3d56;}</style></defs><g transform="translate(-237.999 -3675.202)"><rect width="350" height="2" transform="translate(251.756 4092.294)"/><g transform="translate(-1231 269)"><path class="a" d="M77.591,390.495,52.772,388.84l8.273,37.229,28.128-11.582Z" transform="translate(1469 3398)"/><path d="M305.1,321l-57.911-56.257L214.1,290.391l-65.357,78.594,7.446,11.582,79.421-53.775,53.775,70.321,51.293-25.646Z" transform="translate(1469 3398)"/><path class="b" d="M305.1,321l-57.911-56.257L214.1,290.391l-65.357,78.594,7.446,11.582,79.421-53.775,53.775,70.321,51.293-25.646Z" transform="translate(1469 3398)"/><path class="a" d="M368.845,583.289,361.4,589.08,301.005,568.4l-14.064-5.791L258.813,568.4s0-23.165,26.474-22.337l27.3,6.618,32.265,2.482Z" transform="translate(1410.219 3172.94)"/><path d="M363.839,419.451l-18.2,11.582h-21.51L224.024,393.8,77.591,420.278,73.454,388.84,207.478,330.1l117.478,38.883Z" transform="translate(1469 3398)"/><path class="c" d="M305.142,497.249l-12.41,2.482-2.7-3.155a16.717,16.717,0,0,1-2.26-18.355h0l34.747-45.5s9.928-22.337,25.646-13.237-13.237,23.992-13.237,23.992l-17.373,27.3,1.655,14.064Z" transform="translate(1410.219 3172.94)"/><circle class="a" cx="32.265" cy="32.265" r="32.265" transform="translate(1761.691 3551.885)"/><path class="a" d="M369.258,434.788l14.892,35.574,35.574-14.892s-11.582-28.128-11.582-28.956S369.258,434.788,369.258,434.788Z" transform="translate(1410.219 3172.94)"/><path class="d" d="M467.22,540.029a185.376,185.376,0,0,1-9.091,57.337l-2.417,7.433-11.582,52.948-12.41,3.309-9.1-11.582-18.2-13.237-13.237-21.51-11.351-18.912-3.541-5.907-12.41-62.048-47.156-26.474L301.005,498.9l3.309-9.1,14.064-19.028,14.064-1.655,4.137-3.309,3.309,1.655,13.237-7.446,4.137,1.655,24.19,2.25,14.693-3.078,21.129-11.342,8.654,1.415,29.783,24.819a185.22,185.22,0,0,1,11.508,64.29Z" transform="translate(1410.219 3172.94)"/><path class="a" d="M119.171,628.365s7.41-12.559,4.28-14.025-16.422-7.311-16.422-7.311l-19.492-6.46s-28.126-41.8-28.743-5.45,20.479,45.089,20.479,45.089,18.816,40.493,29.474,34.036,21.323-28.376,21.323-28.376S110.85,635.535,119.171,628.365Z" transform="translate(1410.219 3172.94)"/><path class="b" d="M399.413,307.764l-31.438,20.683-46.924,42.308-3.541-5.907-9.928-49.638h2.482l25.647-47.156Z" transform="translate(1469 3398)"/><path class="d" d="M335.711,263.09l-25.647,47.156h-9.1l-5.791,16.546-13.237,3.31,35.574,38.883,50.465-45.5L399.413,302.8Z" transform="translate(1469 3398)"/><path d="M358.64,387.219l-3.5,1.345a4.88,4.88,0,0,1-1.248-6.86l-6.46-.3a48.782,48.782,0,0,1,72.825-5.87c.294-1.013,3.5.958,4.809,2.956.44-1.648,3.446,6.32,4.509,11.952.492-1.875,2.385,1.152.727,4.057,1.051-.154,1.525,2.535.712,4.032,1.149-.54.956,2.669-.291,4.813,1.64-.146-12.935,22.476-18.837,35.7-1.714-7.873-3.64-16.164-9.166-22.029-.939-1-1.968-1.9-2.995-2.811l-5.554-4.9c-6.458-5.7-12.332-12.736-20.935-14.866-5.912-1.464-9.651-1.795-6.429-8.457-2.911,1.215-5.629,3.021-8.566,4.15C358.287,389.192,358.7,388.151,358.64,387.219Z" transform="translate(1410.219 3172.94)"/><circle class="a" cx="5.791" cy="5.791" r="5.791" transform="translate(1804.297 3582.082)"/><rect class="a" width="28" height="28" transform="translate(1647.439 3457.71)"/><path class="e" d="M282.22,296.77h-34v-34h34ZM249.7,295.291h31.043V264.248H249.7Z" transform="translate(1410.219 3172.94)"/><rect class="a" width="28" height="28" transform="translate(1542.645 3544.253) rotate(74.063)"/><path class="e" d="M133.243,417.876l-9.336-32.693,32.693-9.336,9.336,32.693ZM125.735,386.2l8.524,29.85,29.85-8.524-8.524-29.85Z" transform="translate(1410.219 3172.94)"/><rect class="a" width="28" height="28" transform="matrix(-0.683, 0.731, -0.731, -0.683, 1562.492, 3425.32)"/><path class="e" d="M112.781,277.063,136,252.222l24.841,23.215-23.215,24.841Zm23.286-22.751-21.2,22.681,22.681,21.2,21.2-22.681Z" transform="translate(1410.219 3172.94)"/></g></g></svg>