<svg xmlns="http://www.w3.org/2000/svg" width="21.602" height="28.864" viewBox="0 0 21.602 28.864">
  <path id="Path_742" data-name="Path 742" d="M10.8,28.851c-1.1-1.34-2.139-2.567-3.141-3.827a54.461,54.461,0,0,1-6.281-9.5A11.048,11.048,0,0,1,0,10.762a10.8,10.8,0,0,1,21.6-.079A11.113,11.113,0,0,1,20.17,15.6a51.32,51.32,0,0,1-5.842,8.915C13.214,25.947,12.043,27.343,10.8,28.851Zm0-2.724c.923-1.148,1.79-2.2,2.623-3.287A45.03,45.03,0,0,0,18.9,14.218a8.507,8.507,0,0,0,.912-3.568A9,9,0,0,0,9.533,1.869C3.859,2.612.2,8.814,2.554,13.88,4.636,18.383,7.63,22.221,10.8,26.127Z" transform="translate(0.002 0.012)" fill="#33871b"/>
</svg>
