<svg xmlns="http://www.w3.org/2000/svg" width="176.713" height="36.627" viewBox="0 0 176.713 36.627"><defs><style>.a{fill:#639;}.b{fill:#f90;}</style></defs><g transform="translate(-312.261 -119.844)"><path class="a" d="M442.468,385.249q-2.254-1.941-7.815-1.941-5.608,0-8.8,3.068t-4,9.587q-.815,6.522,1.7,9.589t8.51,3.068a27.717,27.717,0,0,0,4.579-.407,23.206,23.206,0,0,0,4.627-1.27l.719-5.993a15.857,15.857,0,0,1-3.427,1.128,22.124,22.124,0,0,1-4.771.456,6.877,6.877,0,0,1-3.955-.839q-1.126-.839-.694-3.188h3.642q5.562,0,8.295-1.966a7.714,7.714,0,0,0,3.164-5.657Q444.72,387.19,442.468,385.249Zm-5.753,6.16a2.676,2.676,0,0,1-.863,1.655,3.342,3.342,0,0,1-2.4.743h-3.74a6.294,6.294,0,0,1,1.294-3.524,3.774,3.774,0,0,1,3.021-1.222,2.721,2.721,0,0,1,2.205.718A2.162,2.162,0,0,1,436.715,391.409Z" transform="translate(-77.95 -252.15)"/><path class="a" d="M660.714,383.978,659.18,385.9a8.98,8.98,0,0,0-2.829-1.846,11.827,11.827,0,0,0-4.6-.743,9.364,9.364,0,0,0-7.382,3.02q-2.687,3.019-3.5,9.635t1.127,9.637q1.941,3.019,6.64,3.02a13.162,13.162,0,0,0,4.77-.742,12.681,12.681,0,0,0,3.285-1.846l1.1,1.918h4.6l2.925-23.972Zm-5.225,17.4a5.353,5.353,0,0,1-1.055.528,7.388,7.388,0,0,1-1.1.335,5.952,5.952,0,0,1-1.342.144,4.479,4.479,0,0,1-2.135-.431,2.561,2.561,0,0,1-1.15-1.246,5.5,5.5,0,0,1-.407-2.014,16.961,16.961,0,0,1,.143-2.733,19.114,19.114,0,0,1,.528-2.733,6.561,6.561,0,0,1,.911-2.013,3.784,3.784,0,0,1,1.463-1.246,5.07,5.07,0,0,1,2.229-.431,4.924,4.924,0,0,1,1.318.167,7.919,7.919,0,0,1,1.031.359,3.565,3.565,0,0,1,.911.48Z" transform="translate(-273.52 -252.15)"/><path class="a" d="M883.212,305.958l3.5-28.525h-7.623l-3.644,29.58a6.629,6.629,0,0,0,.191,3.02,4.9,4.9,0,0,0,1.318,2.109,5.653,5.653,0,0,0,2.207,1.224,9.619,9.619,0,0,0,2.852.407c.289,0,.568-.008.839-.024a6.773,6.773,0,0,0,.7-.072l.67-.1.768-6.184a2.115,2.115,0,0,1-1.511-.383A1.2,1.2,0,0,1,883.212,305.958Z" transform="translate(-483.169 -157.589)"/><path class="b" d="M1001.874,277.433l-1.581,12.848a9.229,9.229,0,0,0-2.4-1.1,11.582,11.582,0,0,0-3.4-.431,9.366,9.366,0,0,0-7.382,3.02q-2.685,3.019-3.5,9.635t1.126,9.637q1.941,3.019,6.64,3.02a13.175,13.175,0,0,0,4.771-.743,12.694,12.694,0,0,0,3.283-1.846l1.1,1.918h4.6l4.41-35.957Zm-3.644,29.388a5.3,5.3,0,0,1-1.055.528,7.323,7.323,0,0,1-1.1.335,5.942,5.942,0,0,1-1.342.144,4.47,4.47,0,0,1-2.133-.431,2.564,2.564,0,0,1-1.151-1.246,5.562,5.562,0,0,1-.407-2.014,16.777,16.777,0,0,1,.144-2.733,18.678,18.678,0,0,1,.527-2.733,6.487,6.487,0,0,1,.911-2.013,3.781,3.781,0,0,1,1.461-1.246,5.07,5.07,0,0,1,2.229-.431,4.925,4.925,0,0,1,1.318.167,7.829,7.829,0,0,1,1.031.359,3.569,3.569,0,0,1,.911.479Z" transform="translate(-579.635 -157.589)"/><path class="b" d="M1241.88,385.249q-2.254-1.941-7.814-1.941-5.61,0-8.8,3.068t-4,9.587q-.815,6.522,1.7,9.589t8.51,3.068a27.7,27.7,0,0,0,4.579-.407,23.207,23.207,0,0,0,4.627-1.27l.719-5.993a15.827,15.827,0,0,1-3.427,1.128,22.1,22.1,0,0,1-4.77.456,6.88,6.88,0,0,1-3.957-.839q-1.126-.839-.694-3.188h3.644q5.559,0,8.293-1.966a7.714,7.714,0,0,0,3.164-5.657Q1244.132,387.19,1241.88,385.249Zm-5.753,6.16a2.668,2.668,0,0,1-.863,1.655,3.339,3.339,0,0,1-2.4.743h-3.738a6.27,6.27,0,0,1,1.294-3.524,3.771,3.771,0,0,1,3.02-1.222,2.72,2.72,0,0,1,2.205.718A2.155,2.155,0,0,1,1236.127,391.409Z" transform="translate(-791.93 -252.15)"/><path class="b" d="M1460.132,383.978,1458.6,385.9a8.963,8.963,0,0,0-2.829-1.846,11.822,11.822,0,0,0-4.6-.743,9.366,9.366,0,0,0-7.382,3.02q-2.687,3.019-3.5,9.635t1.126,9.637q1.941,3.019,6.64,3.02a13.177,13.177,0,0,0,4.771-.742,12.693,12.693,0,0,0,3.283-1.846l1.1,1.918h4.6l2.924-23.972Zm-5.227,17.4a5.3,5.3,0,0,1-1.054.528,7.417,7.417,0,0,1-1.1.335,5.942,5.942,0,0,1-1.342.144,4.472,4.472,0,0,1-2.133-.431,2.565,2.565,0,0,1-1.151-1.246,5.564,5.564,0,0,1-.407-2.014,16.791,16.791,0,0,1,.145-2.733,18.66,18.66,0,0,1,.528-2.733,6.481,6.481,0,0,1,.911-2.013,3.78,3.78,0,0,1,1.461-1.246,5.069,5.069,0,0,1,2.229-.431,4.925,4.925,0,0,1,1.318.167,7.849,7.849,0,0,1,1.031.359,3.571,3.571,0,0,1,.911.48Z" transform="translate(-987.505 -252.15)"/><path class="b" d="M1682.624,305.958l3.5-28.525H1678.5l-3.644,29.58a6.608,6.608,0,0,0,.193,3.02,4.887,4.887,0,0,0,1.318,2.109,5.636,5.636,0,0,0,2.205,1.224,9.624,9.624,0,0,0,2.851.407c.289,0,.568-.008.84-.024a6.742,6.742,0,0,0,.695-.072l.672-.1.767-6.184a2.12,2.12,0,0,1-1.511-.383A1.214,1.214,0,0,1,1682.624,305.958Z" transform="translate(-1197.15 -157.589)"/><path class="b" d="M167.6,547.96a3.977,3.977,0,0,1,1.159-2.9,4.111,4.111,0,0,1,5.814,5.814,4.066,4.066,0,0,1-6.973-2.918Z" transform="translate(148.955 -395.565)"/><path class="b" d="M328.175,547.96a3.976,3.976,0,0,1,1.159-2.9,4.111,4.111,0,0,1,5.814,5.814,4.066,4.066,0,0,1-6.973-2.918Z" transform="translate(5.539 -395.565)"/><path class="a" d="M159.553,284.049a7.234,7.234,0,0,0-1.7-3.548,8.344,8.344,0,0,0-3.668-2.277,19.1,19.1,0,0,0-5.993-.791H130.847a3.287,3.287,0,0,0-2.446.99,3.407,3.407,0,0,0,2.446,5.842H148a4.189,4.189,0,0,1,1.989.383,2.519,2.519,0,0,1,1.031,1.007,3.059,3.059,0,0,1,.359,1.366,9.631,9.631,0,0,1-.072,1.511,10.636,10.636,0,0,1-.311,1.485,4.079,4.079,0,0,1-.7,1.39,3.478,3.478,0,0,1-1.27,1.007,4.8,4.8,0,0,1-2.085.383h-5.225l.876-7.09h-7.647l-2.4,19.568a5.823,5.823,0,0,1,7.281.677c.091.091.178.184.262.279l.763-6.314h4.938l1.884,7.9a5.544,5.544,0,0,1,1.22-1.856,5.487,5.487,0,0,1,4.062-1.66,5.708,5.708,0,0,1,2.407.505l-1.95-6.426a9.343,9.343,0,0,0,4.41-3.859,16.683,16.683,0,0,0,1.726-10.476Z" transform="translate(184.83 -157.589)"/></g></svg>